<svg width="142" height="32" viewBox="0 0 142 32" fill="none" xmlns="http://www.w3.org/2000/svg">
<path d="M136.275 1.1864L133.899 5.81686C133.672 5.71002 133.437 5.62025 133.196 5.54828C132.461 5.32834 131.686 5.27144 130.927 5.3815C130.167 5.49157 129.441 5.76598 128.797 6.18573C128.998 4.86296 129.181 3.67674 129.181 3.67674C129.181 3.67674 129.46 2.3318 127.971 2.5641C127.12 2.65128 125.292 2.91987 123.889 3.13352C125.48 1.52985 127.539 0.476897 129.767 0.127571C131.995 -0.221755 134.277 0.15073 136.279 1.19094L136.275 1.1864Z" fill="#FFCC04"/>
<path d="M140.818 15.5208C140.494 16.1481 140.11 16.7418 139.669 17.293C139.385 17.6447 139.08 17.9785 138.754 18.2923C137.164 19.831 135.134 20.8329 132.949 21.1581C130.764 21.4833 128.532 21.1156 126.565 20.1064L129.055 15.2537C129.677 15.609 130.364 15.8342 131.075 15.9158C131.785 15.9974 132.505 15.9336 133.191 15.7284C133.499 15.6354 133.799 15.5153 134.087 15.3696C134.615 15.0972 135.095 14.7378 135.505 14.3063C135.698 14.1022 135.875 13.8835 136.035 13.6523C136.136 13.5046 136.23 13.3534 136.315 13.1987L140.818 15.5208Z" fill="url(#paint0_linear_14_421)"/>
<path d="M142 10.6379C142.002 12.3372 141.597 14.012 140.818 15.5208L136.318 13.1953C136.667 12.5567 136.882 11.8528 136.948 11.1275C137.015 10.4021 136.932 9.67079 136.706 8.97885C136.479 8.2869 136.113 7.64916 135.63 7.10523C135.147 6.5613 134.558 6.1228 133.899 5.81698L136.276 1.18652C136.55 1.32913 136.818 1.48434 137.076 1.64811C138.586 2.60759 139.83 3.93519 140.691 5.50713C141.552 7.07908 142.002 8.84419 142 10.6379V10.6379Z" fill="url(#paint1_linear_14_421)"/>
<path d="M129.06 15.2533L126.57 20.1065C124.829 19.2109 123.367 17.8509 122.345 16.1759C121.461 14.7265 120.939 13.0842 120.824 11.3888C120.805 11.1413 120.796 10.8848 120.796 10.6399C120.794 9.11755 121.119 7.61261 121.751 6.22818C121.819 6.07701 121.891 5.92584 121.966 5.77466C122.041 5.62349 122.133 5.47231 122.213 5.32467C122.27 5.22389 122.33 5.1231 122.39 5.02686L122.67 5.32467L124.377 7.02134L126.578 9.2053C126.497 9.49466 126.441 9.79034 126.411 10.0892C126.394 10.2676 126.383 10.449 126.383 10.6314C126.383 11.5699 126.631 12.4917 127.102 13.3027C127.572 14.1137 128.249 14.7849 129.063 15.2477L129.06 15.2533Z" fill="url(#paint2_linear_14_421)"/>
<path d="M129.18 3.67872C129.18 3.67872 128.995 4.86493 128.797 6.1877C128.602 7.46613 128.391 8.87608 128.312 9.4591C128.145 10.6504 127.453 10.0809 127.453 10.0809L126.58 9.2137L122.67 5.33357L122.39 5.03525L121.603 4.1917C121.277 3.61069 121.99 3.42222 121.99 3.42222C121.99 3.42222 122.827 3.29121 123.887 3.12844C125.299 2.91478 127.119 2.6462 127.969 2.55902C129.459 2.33679 129.18 3.67872 129.18 3.67872Z" fill="#1E9A48"/>
<path d="M2.72121 13.4945C2.68304 14.3414 2.66413 15.1344 2.66447 15.8735C2.6648 16.6126 2.68371 17.4049 2.72121 18.2505C2.77745 19.8163 3.25216 21.0848 4.14534 22.056C5.03851 23.0272 6.32153 23.513 7.9944 23.5133C8.89829 23.5133 9.65956 23.4001 10.2782 23.1737C10.8969 22.9473 11.4091 22.6548 11.8148 22.2964C12.2068 21.9547 12.5237 21.535 12.7453 21.0638C12.9569 20.6149 13.1223 20.1455 13.239 19.6629C13.2517 19.5699 13.2834 19.4805 13.3319 19.4003C13.3804 19.32 13.4449 19.2506 13.5212 19.1963C13.6522 19.0988 13.8101 19.0444 13.9731 19.0406H15.2702C15.4343 19.0419 15.5914 19.1079 15.7075 19.2243C15.8236 19.3407 15.8894 19.4982 15.8909 19.6629C15.8718 20.2858 15.7119 20.9649 15.4113 21.7003C15.1107 22.4356 14.6454 23.129 14.0153 23.7804C13.3856 24.4308 12.5773 24.973 11.5904 25.407C10.6035 25.8411 9.4048 26.0581 7.9944 26.0581C6.77214 26.0581 5.68178 25.8648 4.72332 25.4781C3.80245 25.1162 2.96333 24.5725 2.25571 23.8792C1.56398 23.192 1.02163 22.3684 0.662852 21.4604C0.287905 20.5261 0.0810153 19.5025 0.0421815 18.3895C-0.0140605 16.7122 -0.0140605 15.0337 0.0421815 13.3539C0.069946 12.3064 0.279998 11.2717 0.662852 10.2967C1.01891 9.3824 1.56146 8.55287 2.25571 7.86129C2.96346 7.16814 3.80254 6.62445 4.72332 6.26238C5.68212 5.87638 6.77247 5.68304 7.9944 5.68237C9.40413 5.68237 10.6025 5.89939 11.5894 6.33343C12.5763 6.76747 13.3846 7.31035 14.0143 7.96208C14.644 8.6128 15.1093 9.30601 15.4103 10.0417C15.7113 10.7774 15.8711 11.4565 15.8899 12.079C15.8884 12.2437 15.8226 12.4013 15.7065 12.5177C15.5904 12.6341 15.4333 12.7001 15.2692 12.7014H13.9721C13.809 12.6978 13.6511 12.6434 13.5202 12.5457C13.4438 12.4915 13.3793 12.4221 13.3307 12.3418C13.2822 12.2615 13.2506 12.1721 13.238 12.079C13.1212 11.5965 12.9558 11.1271 12.7443 10.6782C12.522 10.208 12.2052 9.78903 11.8138 9.44761C11.4094 9.08916 10.8972 8.79672 10.2772 8.5703C9.65722 8.34387 8.89594 8.23066 7.99339 8.23066C6.31953 8.23066 5.0365 8.71643 4.14433 9.68798C3.25216 10.6595 2.77779 11.9284 2.72121 13.4945Z" fill="#141D3E"/>
<path d="M31.5959 25.0108C31.5937 25.2131 31.5125 25.4064 31.3698 25.5493C31.2271 25.6921 31.0342 25.7731 30.8326 25.7748H29.7912C29.5899 25.7726 29.3976 25.6914 29.2553 25.5486C29.113 25.4058 29.0321 25.2128 29.0299 25.0108V17.5408C29.0299 16.0882 28.682 15.0035 27.9864 14.2866C27.2907 13.5697 26.3226 13.2112 25.0819 13.2112C23.8978 13.2112 22.9437 13.5697 22.2196 14.2866C21.4955 15.0035 21.1336 16.0882 21.1339 17.5408V25.0108C21.1317 25.2128 21.0508 25.4058 20.9085 25.5486C20.7662 25.6914 20.5738 25.7726 20.3726 25.7748H19.3296C19.1284 25.7726 18.9361 25.6914 18.7938 25.5486C18.6515 25.4058 18.5706 25.2128 18.5684 25.0108V6.45021C18.5708 6.24838 18.6518 6.05551 18.7941 5.91278C18.9363 5.77005 19.1285 5.68876 19.3296 5.68628H20.3731C20.5743 5.68876 20.7665 5.77005 20.9087 5.91278C21.0509 6.05551 21.1319 6.24838 21.1344 6.45021V12.7038C21.4916 12.2301 22.0227 11.7917 22.7278 11.3886C23.4328 10.9854 24.3586 10.7827 25.5052 10.7803C26.3429 10.7721 27.1749 10.9208 27.9583 11.2187C28.6821 11.4932 29.3403 11.9175 29.8901 12.4639C30.4257 13.0014 30.8442 13.6664 31.1455 14.4589C31.4468 15.2514 31.5974 16.1379 31.5974 17.1186L31.5959 25.0108Z" fill="#141D3E"/>
<path d="M33.9361 22.068C33.9361 21.3135 34.0867 20.6533 34.388 20.0876C34.6895 19.5202 35.1132 19.0274 35.6284 18.6449C36.1905 18.2298 36.8136 17.9051 37.4753 17.6824C38.2054 17.4312 38.9553 17.2419 39.717 17.1166L43.6931 16.466V16.0981C43.6931 15.1363 43.3781 14.4141 42.748 13.9313C42.118 13.4486 41.3333 13.2085 40.3939 13.2112C39.5663 13.2112 38.9411 13.3624 38.5183 13.6647C38.1006 13.9614 37.7339 14.3245 37.4326 14.7396C37.3401 14.8742 37.2136 14.9817 37.0661 15.051C36.8949 15.1144 36.713 15.1433 36.5308 15.1362H35.6846C35.5822 15.1367 35.4807 15.1169 35.3859 15.078C35.2911 15.0391 35.2049 14.9818 35.1322 14.9094C35.0566 14.8434 34.9978 14.7601 34.961 14.6665C34.9242 14.5729 34.9104 14.4718 34.9208 14.3717C34.958 13.9569 35.1224 13.5324 35.414 13.0984C35.7314 12.6396 36.1335 12.2462 36.5986 11.9394C37.1308 11.583 37.7096 11.3022 38.3185 11.1049C38.9874 10.8848 39.6874 10.7749 40.3914 10.7793C41.1908 10.7722 41.9861 10.8965 42.7455 11.1472C43.4337 11.3719 44.0677 11.7382 44.607 12.2226C45.1348 12.7106 45.5488 13.3095 45.8192 13.9767C46.1105 14.6751 46.2563 15.4768 46.2566 16.3818V25.0109C46.2541 25.2126 46.1732 25.4054 46.0311 25.5481C45.889 25.6908 45.6969 25.7722 45.4958 25.7748H44.4544C44.2531 25.7726 44.0608 25.6914 43.9185 25.5486C43.7762 25.4058 43.6953 25.2128 43.6931 25.0109V23.8519C43.51 24.2272 43.239 24.5525 42.9032 24.7997C42.5275 25.0837 42.116 25.3165 41.6794 25.4921C41.2154 25.6815 40.7336 25.8237 40.2412 25.9164C39.7813 26.0069 39.3139 26.0543 38.8452 26.058C38.1607 26.0656 37.4796 25.9604 36.829 25.7466C36.2181 25.5393 35.7012 25.2611 35.2784 24.9121C34.8608 24.5703 34.5237 24.1401 34.2911 23.6523C34.0544 23.1581 33.933 22.6163 33.9361 22.068V22.068ZM39.1249 23.6246C39.7587 23.6318 40.3888 23.5264 40.9859 23.3132C41.5212 23.1227 42.0145 22.8295 42.4382 22.45C42.8402 22.0847 43.1578 21.6356 43.3687 21.1342C43.5903 20.5963 43.7007 20.0187 43.6931 19.4366V18.7311L40.3653 19.2688C39.1812 19.4579 38.2413 19.7602 37.5456 20.1758C36.85 20.5914 36.5021 21.1289 36.5021 21.7883C36.5037 22.0036 36.5518 22.2159 36.6432 22.4107C36.7514 22.6379 36.9053 22.8402 37.0952 23.0048C37.3293 23.2095 37.6027 23.3639 37.8986 23.4583C38.2274 23.5688 38.6362 23.6243 39.1249 23.6246Z" fill="#141D3E"/>
<path d="M62.6984 25.0109C62.6959 25.2127 62.6149 25.4056 62.4727 25.5483C62.3305 25.691 62.1383 25.7723 61.9371 25.7748H60.8937C60.6924 25.7726 60.5001 25.6914 60.3578 25.5486C60.2155 25.4058 60.1346 25.2128 60.1324 25.0109V17.5409C60.1324 16.0882 59.7845 15.0035 59.0889 14.2866C58.3932 13.5697 57.4251 13.2112 56.1844 13.2112C55.0003 13.2112 54.0462 13.5697 53.3221 14.2866C52.598 15.0035 52.2361 16.0882 52.2364 17.5409V25.0109C52.234 25.2128 52.1529 25.4057 52.0105 25.5485C51.8682 25.6912 51.6759 25.7724 51.4747 25.7748H50.4322C50.231 25.7726 50.0386 25.6914 49.8963 25.5486C49.754 25.4058 49.6731 25.2128 49.6709 25.0109V11.825C49.6732 11.623 49.7542 11.43 49.8964 11.2872C50.0387 11.1444 50.231 11.063 50.4322 11.0605H51.4752C51.6764 11.0631 51.8686 11.1445 52.0109 11.2873C52.1532 11.4301 52.2343 11.623 52.2369 11.825V12.7018C52.5935 12.2294 53.1251 11.7917 53.8318 11.3886C54.5385 10.9854 55.4643 10.7827 56.6092 10.7804C57.4471 10.7721 58.2792 10.9208 59.0628 11.2188C59.7865 11.4932 60.4445 11.9175 60.9941 12.4639C61.5297 13.0014 61.9482 13.6664 62.2495 14.4589C62.5508 15.2514 62.7014 16.138 62.7014 17.1186L62.6984 25.0109Z" fill="#141D3E"/>
<path d="M65.3768 17.4861C65.433 16.449 65.6304 15.5153 65.9688 14.6848C66.3073 13.8544 66.7592 13.1518 67.3246 12.577C67.889 12.0012 68.5656 11.5483 69.3122 11.2466C70.0966 10.9313 70.9348 10.7728 71.7798 10.78C72.9451 10.78 73.8756 10.9828 74.5713 11.3882C75.267 11.7937 75.7934 12.2323 76.1506 12.704V11.8272C76.1529 11.6252 76.2339 11.4322 76.3761 11.2894C76.5184 11.1466 76.7106 11.0652 76.9119 11.0627H77.9548C78.1561 11.0653 78.3483 11.1467 78.4906 11.2895C78.6329 11.4323 78.714 11.6252 78.7166 11.8272V25.5789C78.7166 27.5409 78.1621 29.102 77.053 30.2623C75.9439 31.4227 74.2795 32.0015 72.06 31.9988C70.9321 31.9988 69.9688 31.8629 69.1701 31.5911C68.3713 31.3194 67.7133 30.977 67.1961 30.5642C66.6789 30.1516 66.2939 29.7015 66.0411 29.2137C65.7884 28.7259 65.6521 28.2574 65.6324 27.8083C65.6223 27.7087 65.6362 27.6081 65.673 27.515C65.7098 27.422 65.7684 27.3392 65.8438 27.2736C65.9903 27.1288 66.1879 27.0478 66.3936 27.0484H67.2393C67.4252 27.0421 67.6082 27.0961 67.761 27.2026C67.9023 27.3033 68.0385 27.5039 68.1698 27.8042C68.226 27.9161 68.3154 28.0701 68.4379 28.2663C68.5605 28.4625 68.7578 28.6584 69.03 28.8539C69.3021 29.0494 69.6593 29.2174 70.1016 29.3578C70.5438 29.4982 71.1031 29.5681 71.7793 29.5674C72.3623 29.5713 72.9439 29.5096 73.5132 29.3835C74.0143 29.2759 74.4889 29.0692 74.9092 28.7753C75.3092 28.4857 75.6256 28.095 75.8262 27.643C76.0421 27.171 76.1502 26.5955 76.1506 25.9166V24.1337C75.774 24.643 75.2383 25.0912 74.5437 25.4782C73.849 25.8652 72.9284 26.0585 71.7818 26.0582C70.9368 26.0655 70.0985 25.9068 69.3142 25.591C68.5674 25.29 67.8908 24.8372 67.3266 24.2612C66.7622 23.6864 66.3103 22.9838 65.9708 22.1533C65.6314 21.3229 65.4333 20.3886 65.3768 19.3506C65.3577 19.0674 65.3483 18.756 65.3486 18.4163C65.349 18.0767 65.3584 17.7666 65.3768 17.4861ZM76.1486 17.4014C76.0917 16.062 75.6921 15.0292 74.9499 14.3029C74.2077 13.5766 73.2444 13.2127 72.06 13.2114C70.8213 13.2114 69.8438 13.6076 69.1274 14.4001C68.411 15.1926 68.0163 16.2676 67.9433 17.6252C67.9242 18.154 67.9242 18.6822 67.9433 19.21C68.018 20.5679 68.4126 21.6429 69.1274 22.435C69.8421 23.2272 70.8197 23.6234 72.06 23.6238C73.2444 23.6238 74.2079 23.2559 74.9504 22.5202C75.693 21.7845 76.0925 20.7563 76.1491 19.4357C76.1675 19.1525 76.1769 18.8129 76.1772 18.4168C76.1775 18.0208 76.168 17.6816 76.1486 17.3994V17.4014Z" fill="#141D3E"/>
<path d="M81.5625 17.0032C81.6304 16.1627 81.8401 15.3398 82.1827 14.5698C82.5067 13.8371 82.9557 13.1667 83.5094 12.5889C84.065 12.0161 84.7315 11.5634 85.4678 11.2586C86.2291 10.9381 87.0798 10.7778 88.0198 10.7778C89.0352 10.7778 89.9423 10.9429 90.7411 11.2732C91.5206 11.5896 92.2192 12.0779 92.7854 12.7018C93.3495 13.3246 93.7818 14.0793 94.0825 14.9659C94.3831 15.8524 94.5337 16.8434 94.5344 17.9389V18.7029C94.5319 18.9048 94.4509 19.0977 94.3085 19.2405C94.1662 19.3832 93.9739 19.4645 93.7726 19.4668H84.0718V19.6366C84.1097 20.9196 84.4998 21.9052 85.2424 22.5936C85.9849 23.2819 86.9107 23.6263 88.0198 23.6266C89.0533 23.6266 89.8288 23.4803 90.3464 23.1877C90.8639 22.8951 91.2824 22.5697 91.6018 22.2116C91.7167 22.0882 91.8498 21.9832 91.9965 21.9002C92.109 21.8438 92.278 21.8156 92.5037 21.8156H93.3518C93.5615 21.8167 93.763 21.8976 93.9157 22.0418C94.0848 22.193 94.1506 22.3722 94.1131 22.5795C94.0569 22.9191 93.8972 23.2917 93.634 23.6972C93.3709 24.1026 92.9901 24.4799 92.4916 24.829C91.9935 25.1783 91.3731 25.4708 90.6306 25.7063C89.8881 25.9418 89.0186 26.0593 88.0224 26.059C87.0823 26.059 86.2363 25.8939 85.4844 25.5637C84.7488 25.2449 84.0832 24.7834 83.526 24.2056C82.9604 23.6134 82.5066 22.9231 82.1867 22.1683C81.8406 21.3548 81.6311 20.4895 81.5665 19.6074C81.4707 18.7421 81.4694 17.8688 81.5625 17.0032V17.0032ZM84.0733 17.0878H91.996V17.0032C91.996 15.8526 91.6341 14.9329 90.9103 14.2443C90.1865 13.5556 89.223 13.2112 88.0198 13.2112C87.5002 13.2066 86.9841 13.2978 86.4973 13.4803C86.0386 13.6526 85.6173 13.912 85.2564 14.2443C84.8941 14.5816 84.6059 14.9911 84.4103 15.4466C84.1988 15.9388 84.0839 16.4673 84.0718 17.0032L84.0733 17.0878Z" fill="#141D3E"/>
<path d="M104.685 11.0605C104.886 11.0633 105.078 11.1447 105.22 11.2875C105.362 11.4303 105.443 11.6231 105.446 11.825V12.732C105.443 12.9338 105.362 13.1265 105.22 13.2692C105.078 13.4119 104.886 13.4932 104.685 13.496H103.049C100.887 13.496 99.8059 14.5805 99.8063 16.7497V25.0139C99.8041 25.2158 99.7231 25.4088 99.5808 25.5516C99.4386 25.6944 99.2462 25.7756 99.045 25.7778H98.0015C97.8003 25.7756 97.6079 25.6944 97.4657 25.5516C97.3234 25.4088 97.2425 25.2158 97.2402 25.0139V11.825C97.2426 11.6231 97.3235 11.4301 97.4658 11.2872C97.608 11.1444 97.8003 11.063 98.0015 11.0605H99.045C99.2462 11.063 99.4385 11.1444 99.5807 11.2872C99.723 11.4301 99.8039 11.6231 99.8063 11.825V12.7018C100.182 12.1361 100.634 11.7212 101.162 11.4571C101.69 11.1931 102.377 11.0609 103.221 11.0605H104.685Z" fill="#141D3E"/>
<path d="M105.925 22.068C105.925 21.3135 106.076 20.6534 106.377 20.0876C106.679 19.5205 107.102 19.0277 107.617 18.6449C108.179 18.2299 108.802 17.9052 109.464 17.6825C110.194 17.4312 110.944 17.2419 111.706 17.1166L115.682 16.466V16.0982C115.682 15.1364 115.367 14.4141 114.737 13.9313C114.108 13.4486 113.323 13.2086 112.384 13.2112C111.556 13.2112 110.931 13.3624 110.509 13.6648C110.09 13.961 109.723 14.3239 109.421 14.7391C109.328 14.8736 109.202 14.9811 109.054 15.0505C108.883 15.1139 108.701 15.1428 108.519 15.1357H107.673C107.468 15.1362 107.27 15.0546 107.124 14.9089C107.048 14.8429 106.99 14.7596 106.953 14.666C106.916 14.5724 106.902 14.4714 106.912 14.3712C106.95 13.9564 107.114 13.5319 107.406 13.0979C107.723 12.6391 108.125 12.2457 108.59 11.9389C109.122 11.5825 109.701 11.3017 110.31 11.1044C110.979 10.8843 111.679 10.7744 112.383 10.7789C113.182 10.7717 113.978 10.896 114.737 11.1467C115.425 11.3715 116.059 11.7377 116.598 12.2221C117.126 12.7101 117.54 13.309 117.811 13.9762C118.102 14.6746 118.248 15.4763 118.248 16.3814V25.0108C118.246 25.2128 118.165 25.4058 118.022 25.5486C117.88 25.6914 117.688 25.7726 117.487 25.7748H116.443C116.242 25.7726 116.05 25.6914 115.907 25.5486C115.765 25.4058 115.684 25.2128 115.682 25.0108V23.8519C115.499 24.2266 115.229 24.5515 114.894 24.7987C114.518 25.0833 114.105 25.3164 113.668 25.4921C113.204 25.6816 112.722 25.8237 112.23 25.9164C111.77 26.0069 111.303 26.0543 110.834 26.058C110.149 26.0656 109.468 25.9604 108.818 25.7466C108.207 25.5393 107.69 25.2611 107.267 24.9121C106.849 24.5701 106.512 24.14 106.28 23.6523C106.043 23.1582 105.922 22.6163 105.925 22.068V22.068ZM111.114 23.6246C111.747 23.6319 112.378 23.5265 112.975 23.3132C113.51 23.123 114.003 22.8298 114.427 22.45C114.829 22.085 115.147 21.6359 115.357 21.1343C115.579 20.5963 115.689 20.0187 115.682 19.4366V18.7311L112.355 19.2688C111.17 19.4579 110.231 19.7603 109.535 20.1758C108.839 20.5914 108.491 21.1289 108.491 21.7883C108.493 22.0036 108.541 22.2159 108.633 22.4107C108.741 22.6378 108.895 22.8401 109.084 23.0048C109.319 23.2095 109.592 23.3638 109.888 23.4583C110.216 23.5688 110.625 23.6243 111.114 23.6246Z" fill="#141D3E"/>
<defs>
<linearGradient id="paint0_linear_14_421" x1="130.518" y1="21.6977" x2="136.33" y2="13.5741" gradientUnits="userSpaceOnUse">
<stop stop-color="#4270B7"/>
<stop offset="0.46" stop-color="#4270B7"/>
<stop offset="0.56" stop-color="#446FB5"/>
<stop offset="0.63" stop-color="#4C6EAE"/>
<stop offset="0.69" stop-color="#5D69A1"/>
<stop offset="0.74" stop-color="#71638F"/>
<stop offset="0.8" stop-color="#8F5C78"/>
<stop offset="0.83" stop-color="#A65564"/>
<stop offset="0.93" stop-color="#C8343E"/>
<stop offset="0.99" stop-color="#DB2428"/>
</linearGradient>
<linearGradient id="paint1_linear_14_421" x1="144.945" y1="14.2091" x2="134.279" y2="5.42261" gradientUnits="userSpaceOnUse">
<stop offset="0.65" stop-color="#DB2428"/>
<stop offset="0.68" stop-color="#DC2828"/>
<stop offset="0.72" stop-color="#DD3626"/>
<stop offset="0.76" stop-color="#E04927"/>
<stop offset="0.8" stop-color="#E46325"/>
<stop offset="0.84" stop-color="#E98624"/>
<stop offset="0.86" stop-color="#EE9421"/>
<stop offset="0.92" stop-color="#F5B11A"/>
<stop offset="0.97" stop-color="#FCC513"/>
<stop offset="1" stop-color="#FFCC04"/>
</linearGradient>
<linearGradient id="paint2_linear_14_421" x1="118.362" y1="8.02312" x2="128.486" y2="15.6563" gradientUnits="userSpaceOnUse">
<stop stop-color="#1E9A48"/>
<stop offset="0.57" stop-color="#1E9A48"/>
<stop offset="0.9" stop-color="#4270B7"/>
</linearGradient>
</defs>
</svg>
